<svg width="1155" height="372" viewBox="0 0 1155 372" fill="none" xmlns="http://www.w3.org/2000/svg">
<path fill-rule="evenodd" clip-rule="evenodd" d="M978.537 95.7833L977.31 101.225C970.737 99.4328 964.73 98.5446 959.305 98.5446C950.714 98.5446 945.982 100.466 945.127 104.277C944.771 105.827 945.288 107.071 946.693 108.007C948.082 108.96 950.843 109.929 954.961 110.914L960.709 112.319L966.184 113.627C974.678 115.71 978.375 119.214 977.245 124.188C976.389 127.966 973.434 130.986 968.331 133.247C963.245 135.491 956.866 136.622 949.18 136.622C943.835 136.622 937.117 135.879 929.011 134.361L930.416 128.16C938.264 130.663 944.981 131.923 950.52 131.923C955.235 131.923 959.111 131.309 962.179 130.098C965.247 128.871 967.023 127.24 967.492 125.173C967.847 123.606 967.298 122.363 965.845 121.443C964.391 120.538 961.226 119.473 956.333 118.197L950.326 116.679C944.335 115.129 940.298 113.546 938.215 111.899C936.132 110.268 935.389 108.104 936.003 105.391C936.826 101.726 939.362 98.8676 943.592 96.8491C947.839 94.8467 953.378 93.8294 960.225 93.8294C965.78 93.8294 971.9 94.4915 978.537 95.7833ZM882.246 120.716L897.91 101.225L904.805 120.716H882.246ZM861.899 135.637H870.103L878.338 125.431H906.597L910.101 135.637H920.194L905.063 94.8306H895.568L861.899 135.637ZM810.193 135.637L811.259 130.921H827.892L835.013 99.5296H818.38L819.446 94.8306H862.255L861.189 99.5296H844.556L837.435 130.921H854.068L853.002 135.637H810.193ZM798.341 134.361C791.623 135.879 785.471 136.622 779.835 136.622C770.017 136.622 762.524 134.684 757.405 130.792C752.27 126.901 750.429 121.782 751.866 115.452C753.32 109.009 757.486 103.809 764.365 99.8203C771.244 95.8317 779.512 93.8294 789.152 93.8294C794.627 93.8294 800.327 94.4592 806.285 95.6864L804.977 101.451C799.035 99.5135 793.319 98.5446 787.796 98.5446C781.401 98.5446 775.766 100.095 770.937 103.195C766.109 106.296 763.154 110.236 762.072 115.016C760.974 119.86 762.427 123.816 766.384 126.884C770.34 129.969 775.976 131.503 783.323 131.503C787.747 131.503 793.157 130.744 799.503 129.21L798.341 134.361ZM713.999 91.2941L726.288 84.2374H739.352L721.702 91.2941H713.999ZM703.794 120.716L719.457 101.225L726.353 120.716H703.794ZM683.447 135.637H691.65L699.886 125.431H728.145L731.649 135.637H741.742L726.595 94.8306H717.116L683.447 135.637ZM627.914 135.637L637.167 94.8306H648.583L656.48 119.957H656.577L675.648 94.8306H687.549L678.296 135.637H670.529L678.474 100.612H678.377L658.45 127.03H650.457L642.383 101.354H642.286L634.518 135.637H627.914ZM587.188 113.918H592.211C597.329 113.918 601.544 113.175 604.854 111.689C608.197 110.204 610.151 108.201 610.716 105.682C611.249 103.324 610.506 101.71 608.439 100.838C606.389 99.9656 602.335 99.5296 596.296 99.5296H590.45L587.188 113.918ZM572.784 135.637L582.021 94.8306H599.332C606.534 94.8306 611.443 95.2181 614.059 95.9932C619.662 97.6403 622.004 100.531 621.067 104.665C620.421 107.491 618.855 109.881 616.352 111.77C613.849 113.659 609.99 115.435 604.758 117.066L621.891 135.637H610.377L594.697 118.665H586.123L582.279 135.637H572.784ZM525.341 120.716L541.005 101.225L547.9 120.716H525.341ZM504.995 135.637H513.198L521.434 125.431H549.693L553.197 135.637H563.289L548.142 94.8306H538.647L504.995 135.637ZM456.857 135.637L466.094 94.8306H510.114L509.048 99.5296H474.523L471.342 113.595H500.796L499.731 118.294H470.276L466.352 135.637H456.857Z" fill="#C4161D"/>
<path fill-rule="evenodd" clip-rule="evenodd" d="M1079.12 283.822C1065.41 283.822 1054.6 279.801 1046.68 271.807C1038.76 263.782 1035.26 253.334 1036.15 240.496C1036.76 231.986 1038.92 224.268 1042.67 217.227C1046.4 210.219 1051.99 203.485 1059.4 197.042C1063.24 193.667 1068.07 191.003 1073.89 189.032C1079.73 187.079 1085.64 186.094 1091.7 186.094C1105.29 186.094 1115.98 190.05 1123.73 197.946C1131.49 205.826 1134.91 216.242 1134 229.177C1133.44 237.234 1131.49 244.711 1128.11 251.574C1124.74 258.453 1119.89 264.928 1113.5 271C1109.31 274.989 1104.11 278.138 1097.99 280.414C1091.87 282.691 1085.58 283.822 1079.12 283.822ZM1071.11 245.502C1070.77 250.347 1071.38 254.028 1073 256.58C1074.56 259.115 1077.05 260.407 1080.41 260.407C1085.01 260.407 1089.08 256.903 1092.73 249.927C1096.35 242.919 1098.53 234.199 1099.25 223.815C1099.59 219.052 1098.95 215.467 1097.27 212.98C1095.64 210.493 1093.05 209.234 1089.58 209.234C1085.14 209.234 1081.12 212.706 1077.53 219.617C1073.98 226.577 1071.82 235.2 1071.11 245.502ZM1028.01 146.708C1025.6 154.508 1022.63 160.192 1019.16 163.777C1015.66 167.378 1011.44 169.17 1006.47 169.17C1005.14 169.17 1003.9 169.09 1002.69 168.88C1001.48 168.67 1000.23 168.363 999.039 167.943L993.662 166.086C992.741 165.731 991.821 165.489 990.949 165.311C990.093 165.133 989.221 165.053 988.333 165.053C986.169 165.053 984.312 165.763 982.713 167.233C981.115 168.686 979.92 170.785 979.112 173.482H968.729C971.054 165.876 974.026 160.127 977.691 156.268C981.357 152.409 985.701 150.487 990.723 150.487C991.805 150.487 993.032 150.616 994.388 150.875C995.745 151.149 997.117 151.472 998.522 151.892L1003.87 153.749C1004.84 154.088 1005.69 154.363 1006.47 154.54C1007.27 154.718 1008 154.799 1008.68 154.799C1010.81 154.799 1012.57 154.136 1014.04 152.861C1015.51 151.569 1016.77 149.534 1017.8 146.708H1028.01ZM989.205 237.315C980.792 237.751 974.219 239.269 969.504 241.934C964.805 244.598 962.302 248.167 961.995 252.656C961.802 255.353 962.447 257.5 963.917 259.099C965.354 260.698 967.421 261.521 970.118 261.521C974.849 261.521 978.951 259.357 982.39 255.013C985.846 250.702 988.091 244.808 989.205 237.315ZM982.697 265.106C978.967 271.129 974.51 275.651 969.262 278.638C964.03 281.609 957.91 283.095 950.853 283.095C942.698 283.095 936.255 280.624 931.524 275.651C926.776 270.677 924.693 264.202 925.242 256.273C926.05 244.808 932.089 236.153 943.377 230.323C954.664 224.445 971.232 221.393 993.064 221.086C993.355 220.279 993.597 219.472 993.742 218.664C993.872 217.889 993.952 217.146 994.001 216.452C994.211 213.578 993.484 211.414 991.805 209.96C990.141 208.491 987.574 207.764 984.086 207.764C980.436 207.764 977.207 208.669 974.429 210.493C971.636 212.286 969.472 214.869 967.922 218.196L938.839 212.318C943.037 203.905 949.481 197.494 958.184 193.069C966.904 188.661 977.417 186.449 989.77 186.449C1002.72 186.449 1012.54 188.936 1019.24 193.877C1025.93 198.818 1028.93 205.826 1028.3 214.95C1028.22 216 1028.07 217.227 1027.86 218.616C1027.65 219.956 1027.3 221.748 1026.81 223.993L1018.16 259.503C1017.48 262.474 1016.95 265.009 1016.61 267.076C1016.22 269.175 1015.98 270.984 1015.87 272.502C1015.77 273.907 1015.74 275.312 1015.75 276.749C1015.77 278.202 1015.83 279.623 1015.95 281.093H981.26C981.147 280.172 981.098 279.203 981.131 278.283C981.179 277.362 981.26 276.135 981.373 274.601C981.486 272.954 981.647 271.339 981.874 269.789C982.1 268.19 982.39 266.64 982.697 265.106ZM865.381 283.822C871.841 283.822 878.122 282.691 884.242 280.414C890.379 278.138 895.562 274.989 899.761 271C906.155 264.928 911 258.453 914.375 251.574C917.75 244.711 919.703 237.234 920.269 229.177C921.173 216.242 917.75 205.826 909.998 197.946C902.247 190.05 891.557 186.094 877.961 186.094C871.905 186.094 865.979 187.079 860.149 189.032C854.336 191.003 849.492 193.667 845.665 197.042C838.253 203.485 832.665 210.219 828.935 217.227C825.189 224.268 823.009 231.986 822.411 240.496C821.523 253.334 825.027 263.782 832.94 271.807C840.869 279.801 851.672 283.822 865.381 283.822ZM857.356 245.502C857.017 250.347 857.646 254.028 859.245 256.58C860.828 259.115 863.314 260.407 866.673 260.407C871.259 260.407 875.345 256.903 878.994 249.927C882.611 242.919 884.791 234.199 885.518 223.815C885.857 219.052 885.195 215.467 883.532 212.98C881.885 210.493 879.317 209.234 875.845 209.234C871.405 209.234 867.384 212.706 863.799 219.617C860.246 226.577 858.082 235.2 857.356 245.502ZM727.558 280.043L734.404 251.961C737.553 252.624 740.185 253.092 742.236 253.366C744.287 253.673 746.16 253.819 747.823 253.819C754.396 253.819 759.272 252.236 762.502 249.087C765.715 245.922 768.541 239.35 770.931 229.354L788.468 156.446H826.61L806.473 238.542C802.549 254.448 796.365 265.946 787.935 273.051C779.49 280.108 767.782 283.644 752.749 283.644C748.599 283.644 744.4 283.337 740.218 282.707C736.035 282.11 731.805 281.222 727.558 280.043ZM621.998 283.822C608.272 283.822 597.469 279.801 589.556 271.807C581.627 263.782 578.123 253.334 579.028 240.496C579.625 231.986 581.805 224.268 585.535 217.227C589.282 210.219 594.869 203.485 602.281 197.042C606.108 193.667 610.936 191.003 616.75 189.032C622.595 187.079 628.505 186.094 634.561 186.094C648.174 186.094 658.848 190.05 666.599 197.946C674.366 205.826 677.773 216.242 676.869 229.177C676.32 237.234 674.35 244.711 670.975 251.574C667.6 258.453 662.755 264.928 656.377 271C652.178 274.989 646.979 278.138 640.859 280.414C634.738 282.691 628.457 283.822 621.998 283.822ZM613.972 245.502C613.633 250.347 614.247 254.028 615.861 256.58C617.428 259.115 619.915 260.407 623.273 260.407C627.876 260.407 631.945 256.903 635.594 249.927C639.212 242.919 641.408 234.199 642.134 223.815C642.457 219.052 641.811 215.467 640.148 212.98C638.501 210.493 635.933 209.234 632.445 209.234C628.005 209.234 623.984 212.706 620.399 219.617C616.846 226.577 614.699 235.2 613.972 245.502ZM570.889 146.708C568.467 154.508 565.496 160.192 562.024 163.777C558.52 167.378 554.305 169.17 549.331 169.17C548.023 169.17 546.764 169.09 545.553 168.88C544.342 168.67 543.114 168.363 541.903 167.943L536.542 166.086C535.605 165.731 534.685 165.489 533.813 165.311C532.957 165.133 532.085 165.053 531.213 165.053C529.033 165.053 527.176 165.763 525.578 167.233C523.995 168.686 522.784 170.785 521.993 173.482H511.609C513.919 165.876 516.89 160.127 520.555 156.268C524.221 152.409 528.565 150.487 533.603 150.487C534.685 150.487 535.896 150.616 537.253 150.875C538.609 151.149 539.998 151.472 541.403 151.892L546.732 153.749C547.7 154.088 548.556 154.363 549.348 154.54C550.139 154.718 550.865 154.799 551.544 154.799C553.675 154.799 555.451 154.136 556.921 152.861C558.374 151.569 559.634 149.534 560.683 146.708H570.889ZM532.085 237.315C530.971 244.808 528.71 250.702 525.255 255.013C521.815 259.357 517.713 261.521 512.982 261.521C510.285 261.521 508.218 260.698 506.781 259.099C505.312 257.5 504.666 255.353 504.86 252.656C505.166 248.167 507.685 244.598 512.368 241.934C517.084 239.269 523.656 237.751 532.085 237.315ZM525.578 265.106C525.255 266.64 524.98 268.19 524.754 269.789C524.528 271.339 524.35 272.954 524.237 274.601C524.124 276.135 524.043 277.362 524.011 278.283C523.979 279.203 524.027 280.172 524.124 281.093H558.81C558.713 279.623 558.633 278.202 558.616 276.749C558.6 275.312 558.649 273.907 558.746 272.502C558.843 270.984 559.085 269.175 559.472 267.076C559.828 265.009 560.344 262.474 561.023 259.503L569.678 223.993C570.162 221.748 570.518 219.956 570.728 218.616C570.937 217.227 571.083 216 571.164 214.95C571.809 205.826 568.79 198.818 562.121 193.877C555.403 188.936 545.585 186.449 532.634 186.449C520.281 186.449 509.785 188.661 501.049 193.069C492.345 197.494 485.902 203.905 481.719 212.318L510.786 218.196C512.336 214.869 514.5 212.286 517.294 210.493C520.071 208.669 523.301 207.764 526.95 207.764C530.438 207.764 533.022 208.491 534.669 209.96C536.348 211.414 537.075 213.578 536.865 216.452C536.817 217.146 536.752 217.889 536.607 218.664C536.461 219.472 536.219 220.279 535.928 221.086C514.096 221.393 497.528 224.445 486.257 230.323C474.953 236.153 468.914 244.808 468.107 256.273C467.558 264.202 469.641 270.677 474.388 275.651C479.12 280.624 485.563 283.095 493.717 283.095C500.774 283.095 506.894 281.609 512.142 278.638C517.374 275.651 521.847 271.129 525.578 265.106ZM384.12 241.013C385.541 245.615 388.254 249.152 392.211 251.574C396.118 253.996 401.092 255.223 407.099 255.223C412.073 255.223 416.045 254.303 419.049 252.478C422.004 250.621 423.619 248.134 423.845 244.953C424.152 240.529 418.79 236.475 407.729 232.858C404.612 231.841 402.174 231.034 400.446 230.372C388.287 226.06 379.631 220.973 374.432 215.079C369.264 209.201 366.971 201.935 367.569 193.279C368.36 182.04 373.721 172.674 383.636 165.166C393.551 157.657 405.678 153.894 420.018 153.894C432.936 153.894 443.82 156.688 452.734 162.291C461.615 167.862 467.315 175.436 469.77 184.947L437.845 193.279C436.86 189.226 434.68 186.126 431.273 183.881C427.898 181.637 423.699 180.49 418.677 180.49C414.608 180.49 411.265 181.362 408.666 183.074C406.066 184.802 404.677 187.079 404.483 189.856C404.209 193.78 408.892 197.494 418.532 200.998C419.743 201.483 420.696 201.806 421.342 202.048C436.828 207.716 447.437 213.545 453.137 219.504C458.838 225.463 461.357 233.004 460.711 242.143C459.855 254.238 454.138 264.186 443.497 271.969C432.871 279.752 419.501 283.644 403.417 283.644C388.965 283.644 376.967 280.527 367.423 274.327C357.88 268.126 351.873 259.535 349.402 248.554L384.12 241.013Z" fill="white"/>
<path fill-rule="evenodd" clip-rule="evenodd" d="M195.179 30.4851C273.949 49.233 332.001 101.165 324.832 146.461C317.662 191.756 247.967 213.297 169.197 194.566C90.4424 175.818 32.3739 123.886 39.5436 78.5902C46.7134 33.2949 116.408 11.7534 195.179 30.4851Z" fill="#99D420"/>
<path fill-rule="evenodd" clip-rule="evenodd" d="M139.946 64.0955C139.72 64.0794 139.51 64.1117 139.284 64.0955V64.0309L53.9253 65.1936C53.9253 65.1936 20.8702 77.886 20.8702 105.338C20.1597 135.438 43.0415 148.308 43.0415 148.308L131.194 158.642L131.21 158.594C131.775 158.675 132.356 158.804 132.954 158.836C151.653 160.225 168.383 140.137 170.304 113.977C172.242 87.8171 158.646 65.4843 139.946 64.0955Z" fill="#231F20"/>
<path fill-rule="evenodd" clip-rule="evenodd" d="M162.763 113.699C161.148 135.515 148.036 152.357 133.47 151.275C118.904 150.193 108.408 131.623 110.007 109.791C111.622 87.9747 124.75 71.1484 139.299 72.2142C153.881 73.2961 164.377 91.8664 162.763 113.699Z" fill="#99D420"/>
<path fill-rule="evenodd" clip-rule="evenodd" d="M328.687 73.0662C319.838 45.776 290.868 41.965 290.868 41.965L208.82 55.9977C190.201 58.9851 178.51 82.5774 182.709 108.705C186.891 134.816 205.381 153.564 223.999 150.577C224.968 150.432 225.889 150.189 226.825 149.931L226.841 150.028L315.882 121.349C315.882 121.349 337.52 100.373 328.687 73.0662Z" fill="#231F20"/>
<path fill-rule="evenodd" clip-rule="evenodd" d="M210.693 219.918C198.437 222.243 190.153 233.838 192.187 245.82C194.222 257.818 205.816 265.666 218.073 263.356C230.345 261.031 238.629 249.437 236.595 237.455C234.56 225.457 222.949 217.609 210.693 219.918Z" fill="#00ADEF"/>
<path d="M210.693 219.918C198.437 222.243 190.153 233.838 192.187 245.82C194.222 257.818 205.816 265.666 218.073 263.356C230.345 261.031 238.629 249.437 236.595 237.455C234.56 225.457 222.949 217.609 210.693 219.918Z" stroke="#231F20" stroke-width="0.904" stroke-miterlimit="22.926"/>
<path fill-rule="evenodd" clip-rule="evenodd" d="M203.795 173.722C197.53 174.901 193.299 180.811 194.349 186.931C195.382 193.035 201.292 197.056 207.558 195.861C213.807 194.682 218.038 188.772 216.988 182.652C215.955 176.548 210.045 172.543 203.795 173.722Z" fill="#ED1C24"/>
<path d="M203.795 173.722C197.53 174.901 193.299 180.811 194.349 186.931C195.382 193.035 201.292 197.056 207.558 195.861C213.807 194.682 218.038 188.772 216.988 182.652C215.955 176.548 210.045 172.543 203.795 173.722Z" stroke="#231F20" stroke-width="0.904" stroke-miterlimit="22.926"/>
<path fill-rule="evenodd" clip-rule="evenodd" d="M188.857 163.293C182.608 164.472 178.377 170.382 179.427 176.502C180.46 182.622 186.37 186.627 192.636 185.448C198.885 184.27 203.116 178.359 202.066 172.239C201.033 166.119 195.123 162.114 188.857 163.293Z" fill="#FFF200"/>
<path d="M188.857 163.293C182.608 164.472 178.377 170.382 179.427 176.502C180.46 182.622 186.37 186.627 192.636 185.448C198.885 184.27 203.116 178.359 202.066 172.239C201.033 166.119 195.123 162.114 188.857 163.293Z" stroke="#231F20" stroke-width="0.904" stroke-miterlimit="22.926"/>
<path fill-rule="evenodd" clip-rule="evenodd" d="M213.743 240.053C209.076 242.814 203.682 242.556 201.696 239.439C199.71 236.339 201.874 231.559 206.541 228.798C211.191 226.02 216.585 226.311 218.571 229.411C220.573 232.512 218.393 237.292 213.743 240.053ZM171.629 183.293C161.471 185.214 154.592 194.822 156.288 204.753C157.967 214.684 167.575 221.192 177.732 219.27C187.906 217.365 194.769 207.757 193.073 197.81C191.394 187.879 181.786 181.387 171.629 183.293Z" fill="white"/>
<path d="M171.628 183.293C161.471 185.214 154.592 194.822 156.288 204.753C157.967 214.684 167.575 221.192 177.732 219.27C187.906 217.365 194.769 207.757 193.073 197.81C191.394 187.879 181.786 181.387 171.628 183.293Z" stroke="#231F20" stroke-width="0.904" stroke-miterlimit="22.926"/>
<path fill-rule="evenodd" clip-rule="evenodd" d="M114.773 249.906L117.971 259.32L173.504 240.831L172.858 239.151L114.773 249.906ZM139.157 288.984L143.565 293.183L176.378 259.579L175.555 258.852L139.157 288.984ZM170.032 321.813L175.749 323.541L191.122 278.133L190.088 277.858L170.032 321.813ZM221.48 321.846L230.7 320.085L220.043 281.459L217.734 281.814L221.48 321.846ZM276.028 293.538L280.792 288.096L249.804 259.982L248.383 260.661L276.028 293.538ZM301.316 255.671L299.637 247.984L252.533 244.965L252.565 247.435L301.316 255.671ZM298.619 215.559L298.635 208.195L248.334 225.926L248.835 226.927L298.619 215.559Z" fill="#ED1C24"/>
<path fill-rule="evenodd" clip-rule="evenodd" d="M132.152 124.309C138.514 124.309 143.665 129.364 143.665 135.581C143.665 141.782 138.514 146.82 132.152 146.82C125.806 146.82 120.654 141.782 120.654 135.581C120.654 129.364 125.806 124.309 132.152 124.309Z" fill="#FFF200"/>
<path d="M132.152 124.309C138.514 124.309 143.665 129.364 143.665 135.581C143.665 141.782 138.514 146.82 132.152 146.82C125.806 146.82 120.654 141.782 120.654 135.581C120.654 129.364 125.806 124.309 132.152 124.309Z" stroke="#231F20" stroke-width="1.25067" stroke-miterlimit="22.926"/>
<path fill-rule="evenodd" clip-rule="evenodd" d="M132.152 124.309C138.514 124.309 143.665 129.364 143.665 135.581C143.665 141.782 138.514 146.82 132.152 146.82C125.806 146.82 120.654 141.782 120.654 135.581C120.654 129.364 125.806 124.309 132.152 124.309Z" fill="#FFF200"/>
<path d="M132.152 124.309C138.514 124.309 143.665 129.364 143.665 135.581C143.665 141.782 138.514 146.82 132.152 146.82C125.806 146.82 120.654 141.782 120.654 135.581C120.654 129.364 125.806 124.309 132.152 124.309Z" stroke="#231F20" stroke-width="1.25067" stroke-miterlimit="22.926"/>
<path fill-rule="evenodd" clip-rule="evenodd" d="M243.274 98.9888C246.778 120.773 237.654 140.344 222.927 142.718C208.184 145.075 193.393 129.331 189.888 107.547C186.4 85.7635 195.524 66.1759 210.251 63.8183C224.994 61.4445 239.786 77.1889 243.274 98.9888Z" fill="#99DEF9"/>
<path fill-rule="evenodd" clip-rule="evenodd" d="M290.788 49.9686C290.788 49.9686 236.24 59.2214 229.264 60.5778C229.264 60.5778 229.7 60.8847 230.427 61.4821C240.648 68.232 249.013 82.0871 251.726 99.0264C253.874 112.478 252.065 125.154 247.447 134.633L311.797 114.529C327.073 104.484 332.159 57.7519 290.788 49.9686Z" fill="#99DEF9"/>
<path fill-rule="evenodd" clip-rule="evenodd" d="M203.848 138.054C197.793 139.184 193.691 144.917 194.708 150.843C195.71 156.769 201.442 160.661 207.498 159.514C213.569 158.368 217.655 152.635 216.654 146.709C215.636 140.783 209.904 136.907 203.848 138.054Z" fill="#FFF200"/>
<path d="M203.848 138.054C197.793 139.184 193.691 144.917 194.708 150.843C195.71 156.769 201.442 160.661 207.498 159.514C213.569 158.368 217.655 152.635 216.654 146.709C215.636 140.783 209.904 136.907 203.848 138.054Z" stroke="#231F20" stroke-width="0.941333" stroke-miterlimit="22.926"/>
<path fill-rule="evenodd" clip-rule="evenodd" d="M205.964 114.83C199.715 116.009 195.484 121.935 196.534 128.039C197.567 134.159 203.477 138.164 209.743 136.985C215.992 135.806 220.223 129.896 219.173 123.776C218.14 117.672 212.23 113.651 205.964 114.83Z" fill="#ED1C24"/>
<path d="M205.964 114.83C199.715 116.009 195.484 121.935 196.534 128.039C197.567 134.159 203.477 138.164 209.743 136.985C215.992 135.806 220.223 129.896 219.173 123.776C218.14 117.672 212.23 113.651 205.964 114.83Z" stroke="#231F20" stroke-width="0.904" stroke-miterlimit="22.926"/>
<path fill-rule="evenodd" clip-rule="evenodd" d="M227.271 98.9859C221.022 100.165 216.791 106.075 217.841 112.195C218.874 118.315 224.784 122.32 231.05 121.141C237.299 119.962 241.53 114.052 240.48 107.932C239.447 101.812 233.536 97.8071 227.271 98.9859Z" fill="white"/>
<path d="M227.271 98.9859C221.022 100.165 216.791 106.075 217.841 112.195C218.874 118.315 224.784 122.32 231.05 121.141C237.299 119.962 241.53 114.052 240.48 107.932C239.447 101.812 233.536 97.8071 227.271 98.9859Z" stroke="#231F20" stroke-width="0.904" stroke-miterlimit="22.926"/>
<path fill-rule="evenodd" clip-rule="evenodd" d="M221.015 122.756C214.765 123.935 210.535 129.845 211.568 135.966C212.618 142.086 218.528 146.09 224.777 144.912C231.043 143.733 235.257 137.823 234.224 131.702C233.19 125.582 227.264 121.578 221.015 122.756Z" fill="#0994DC"/>
<path d="M221.015 122.756C214.765 123.935 210.535 129.845 211.568 135.966C212.618 142.086 218.528 146.09 224.777 144.912C231.043 143.733 235.257 137.823 234.224 131.702C233.19 125.582 227.264 121.578 221.015 122.756Z" stroke="#231F20" stroke-width="0.904" stroke-miterlimit="22.926"/>
<path fill-rule="evenodd" clip-rule="evenodd" d="M222.27 108.242C216.005 109.405 211.79 115.331 212.824 121.451C213.857 127.555 219.783 131.56 226.033 130.381C232.282 129.202 236.513 123.292 235.479 117.172C234.43 111.052 228.519 107.047 222.27 108.242Z" fill="#F68712"/>
<path d="M222.27 108.242C216.005 109.405 211.79 115.331 212.824 121.451C213.857 127.555 219.783 131.56 226.033 130.381C232.282 129.202 236.513 123.292 235.479 117.172C234.43 111.052 228.519 107.047 222.27 108.242Z" stroke="#231F20" stroke-width="0.904" stroke-miterlimit="22.926"/>
<path fill-rule="evenodd" clip-rule="evenodd" d="M153.304 145.74C159.65 145.74 164.801 150.778 164.801 156.979C164.801 163.196 159.65 168.234 153.304 168.234C146.958 168.234 141.79 163.196 141.79 156.979C141.79 150.778 146.958 145.74 153.304 145.74Z" fill="#ED1C24"/>
<path d="M153.304 145.74C159.65 145.74 164.801 150.778 164.801 156.979C164.801 163.196 159.65 168.234 153.304 168.234C146.958 168.234 141.79 163.196 141.79 156.979C141.79 150.778 146.958 145.74 153.304 145.74Z" stroke="#231F20" stroke-width="0.904" stroke-miterlimit="22.926"/>
<path fill-rule="evenodd" clip-rule="evenodd" d="M101.353 109.34C102.484 93.8867 109.234 80.5 117.211 72.1353L54.9923 73.088C46.0463 76.9797 39.3126 82.5185 34.8718 88.9131C31.4 93.9029 29.3008 99.3932 28.6225 104.997C27.9443 110.632 28.671 116.413 30.8187 121.968C33.4347 128.718 38.1499 135.129 45.029 140.555L111.656 148.306C104.971 138.843 100.239 124.778 101.353 109.34Z" fill="#99D420"/>
<path fill-rule="evenodd" clip-rule="evenodd" d="M162.767 113.702C162.896 111.942 162.912 110.23 162.896 108.535L152.9 111.716L146.489 110.634L136.171 111.716L134.088 109.536L120.943 111.716L109.866 113.46C109.623 133.677 119.732 150.261 133.474 151.279C148.04 152.361 161.152 135.518 162.767 113.702Z" fill="#00A650"/>
<path fill-rule="evenodd" clip-rule="evenodd" d="M132.152 124.309C138.514 124.309 143.665 129.364 143.665 135.581C143.665 141.782 138.514 146.82 132.152 146.82C125.806 146.82 120.654 141.782 120.654 135.581C120.654 129.364 125.806 124.309 132.152 124.309Z" fill="#FFF200"/>
<path d="M132.152 124.309C138.514 124.309 143.665 129.364 143.665 135.581C143.665 141.782 138.514 146.82 132.152 146.82C125.806 146.82 120.654 141.782 120.654 135.581C120.654 129.364 125.806 124.309 132.152 124.309Z" stroke="#231F20" stroke-width="0.904" stroke-miterlimit="22.926"/>
<path d="M348.823 348.213C351.277 348.213 354.249 347.309 356.509 345.952C358.641 344.725 360.643 342.852 362.258 340.591L363.55 338.589L359.997 336.199L358.641 338.007C355.993 341.818 352.892 343.756 349.21 343.756C342.687 343.756 338.488 337.491 339.199 328.835C339.974 320.115 345.335 313.85 351.859 313.85C355.54 313.85 358.253 315.852 360.256 319.598L361.225 321.472L365.294 319.082L364.26 317.015C363.033 314.819 361.418 312.945 359.481 311.654C357.414 310.297 354.701 309.328 352.246 309.328C350.115 309.328 347.531 310.039 345.464 311.072C343.591 312.106 341.847 313.462 340.361 315.206C337.196 318.759 334.936 323.862 334.483 328.835C334.096 333.809 335.452 338.847 337.971 342.4C339.199 344.144 340.684 345.565 342.428 346.533C344.237 347.567 346.691 348.213 348.823 348.213Z" fill="white"/>
<path d="M376.295 348.209C379.007 348.209 382.172 346.917 384.239 344.85C386.306 342.848 387.792 339.683 388.05 336.841L389.601 319.013H384.95L383.4 336.841C383.012 341.039 380.364 343.752 376.682 343.752C373 343.752 370.869 341.039 371.256 336.841L372.807 319.013H368.091L366.541 336.841C366.283 339.683 367.316 342.848 368.996 344.85C370.675 346.917 373.582 348.209 376.295 348.209Z" fill="white"/>
<path d="M394.224 348.207H398.164L400.747 318.947H396.032L393.448 348.207H394.224ZM399.133 310.615C398.164 310.615 396.614 311.906 396.549 312.811L396.484 313.457C396.42 314.361 397.712 315.653 398.68 315.653C399.52 315.653 401.135 314.361 401.2 313.457L401.264 312.811C401.329 311.906 399.972 310.615 399.133 310.615Z" fill="white"/>
<path d="M406.897 344.077C409.222 346.661 413.033 348.211 416.65 348.211H423.949L427.373 309.327H422.722L421.882 318.951C421.882 318.951 422.076 319.08 421.818 319.274C421.689 319.468 421.753 319.468 421.107 319.468H419.169C415.552 319.468 411.483 321.083 408.641 323.731C405.863 326.25 403.926 330.19 403.603 333.872C403.28 337.554 404.507 341.429 406.897 344.077ZM421.495 323.214L419.686 343.754H417.038C411.289 343.754 407.737 339.621 408.253 333.872C408.705 328.059 413.033 323.925 418.782 323.925H420.655C421.236 323.925 421.689 323.86 421.43 323.925L421.495 323.214Z" fill="white"/>
<path d="M439.61 348.273C442.193 348.273 445.294 347.24 447.296 345.754C449.428 344.14 450.913 341.556 451.107 339.295L452.141 327.992C452.334 325.666 451.301 323.082 449.492 321.532C447.813 319.982 445.1 319.013 442.581 319.013C439.287 319.013 435.54 320.628 433.538 323.018L432.052 324.891L435.411 327.604L436.897 325.795C438.253 324.245 439.868 323.47 442.193 323.47C445.811 323.47 447.684 325.279 447.49 327.992L447.296 329.542C447.296 330.058 447.296 330.058 447.167 330.188C446.909 330.381 446.779 330.252 446.779 330.252H441.16C438.512 330.252 435.476 331.221 433.473 332.771C431.407 334.322 429.856 336.905 429.598 339.295C429.404 341.556 430.567 344.14 432.375 345.754C434.119 347.24 436.961 348.273 439.61 348.273ZM446.392 334.709C446.586 334.709 447.038 334.709 446.844 334.774L446.457 339.295C446.392 340.522 445.94 341.362 444.583 342.331C443.162 343.364 441.87 343.752 439.997 343.752C438.06 343.752 436.897 343.364 435.605 342.331C434.572 341.362 434.184 340.522 434.249 339.295C434.378 337.939 434.895 337.164 436.186 336.195C437.607 335.161 438.899 334.709 440.837 334.709H446.392Z" fill="white"/>
<path d="M460.607 347.695L462.092 330.384C462.48 326.186 465.064 323.473 468.81 323.473H469.973L470.36 318.951H469.198C466.485 318.951 463.32 320.308 461.188 322.375C459.186 324.377 457.635 327.542 457.377 330.384L455.827 348.211H460.542L460.607 347.695Z" fill="white"/>
<path d="M489.386 344.077C491.712 346.661 495.523 348.211 499.14 348.211H506.439L509.862 309.327H505.211L504.372 318.951C504.372 318.951 504.566 319.08 504.307 319.274C504.178 319.468 504.243 319.468 503.597 319.468H501.659C498.042 319.468 493.972 321.083 491.13 323.731C488.353 326.25 486.415 330.19 486.092 333.872C485.769 337.554 486.996 341.429 489.386 344.077ZM503.984 323.214L502.176 343.754H499.527C493.779 343.754 490.226 339.621 490.743 333.872C491.195 328.059 495.523 323.925 501.271 323.925H503.145C503.726 323.925 504.178 323.86 503.92 323.925L503.984 323.214Z" fill="white"/>
<path d="M522.109 348.273C524.693 348.273 527.793 347.24 529.796 345.754C531.927 344.14 533.413 341.556 533.607 339.295L534.64 327.992C534.834 325.666 533.8 323.082 531.992 321.532C530.312 319.982 527.6 319.013 525.08 319.013C521.786 319.013 518.04 320.628 516.038 323.018L514.552 324.891L517.911 327.604L519.396 325.795C520.753 324.245 522.368 323.47 524.693 323.47C528.31 323.47 530.183 325.279 529.99 327.992L529.796 329.542C529.796 330.058 529.796 330.058 529.667 330.188C529.408 330.381 529.279 330.252 529.279 330.252H523.659C521.011 330.252 517.975 331.221 515.973 332.771C513.906 334.322 512.356 336.905 512.097 339.295C511.904 341.556 513.066 344.14 514.875 345.754C516.619 347.24 519.461 348.273 522.109 348.273ZM528.891 334.709C529.085 334.709 529.537 334.709 529.344 334.774L528.956 339.295C528.891 340.522 528.439 341.362 527.083 342.331C525.662 343.364 524.37 343.752 522.497 343.752C520.559 343.752 519.396 343.364 518.105 342.331C517.071 341.362 516.683 340.522 516.748 339.295C516.877 337.939 517.394 337.164 518.686 336.195C520.107 335.161 521.399 334.709 523.337 334.709H528.891Z" fill="white"/>
<path d="M561.776 348.208C564.618 348.208 567.719 347.304 569.592 345.753C571.336 344.268 572.628 341.749 572.821 339.423C573.015 337.034 571.917 334.644 569.915 333.352C568.3 332.318 565.781 331.608 563.714 331.091C561.97 330.639 560.549 330.316 559.386 329.541C558.223 328.83 558.03 328.314 558.159 327.022C558.353 324.309 559.644 323.469 563.972 323.469C565.91 323.469 567.202 324.244 568.171 325.859L569.398 327.668L573.273 324.826L572.046 323.017C570.367 320.627 567.331 319.012 564.36 319.012C561.259 319.012 558.223 319.852 556.544 321.273C554.865 322.565 553.702 324.826 553.508 327.022C553.314 329.476 554.413 331.866 556.479 333.158C558.03 334.191 560.613 334.967 562.551 335.483C564.424 335.935 565.781 336.258 566.943 337.034C568.041 337.744 568.3 338.132 568.171 339.423C567.912 342.459 566.168 343.751 562.164 343.751C557.578 343.751 557.061 342.782 556.092 341.426L554.929 339.617L551.054 342.395L552.346 344.268C552.991 345.108 554.348 346.464 555.963 347.239C557.448 347.95 559.257 348.208 561.776 348.208Z" fill="white"/>
<path d="M586.666 348.208C589.379 348.208 592.544 346.916 594.611 344.849C596.678 342.847 598.164 339.682 598.422 336.84L599.972 319.012H595.322L593.772 336.84C593.384 341.038 590.736 343.751 587.054 343.751C583.372 343.751 581.241 341.038 581.628 336.84L583.178 319.012H578.463L576.913 336.84C576.655 339.682 577.688 342.847 579.367 344.849C581.047 346.916 583.954 348.208 586.666 348.208Z" fill="white"/>
<path d="M612.364 348.273C614.948 348.273 618.048 347.24 620.05 345.754C622.182 344.14 623.668 341.556 623.861 339.295L624.895 327.991C625.089 325.666 624.055 323.082 622.247 321.532C620.567 319.982 617.854 319.013 615.335 319.013C612.041 319.013 608.295 320.628 606.292 323.018L604.807 324.891L608.165 327.604L609.651 325.795C611.007 324.245 612.622 323.47 614.948 323.47C618.565 323.47 620.438 325.279 620.244 327.991L620.05 329.542C620.05 330.058 620.05 330.058 619.921 330.188C619.663 330.381 619.534 330.252 619.534 330.252H613.914C611.266 330.252 608.23 331.221 606.228 332.771C604.161 334.321 602.61 336.905 602.352 339.295C602.158 341.556 603.321 344.14 605.13 345.754C606.874 347.24 609.716 348.273 612.364 348.273ZM619.146 334.709C619.34 334.709 619.792 334.709 619.598 334.774L619.211 339.295C619.146 340.522 618.694 341.362 617.337 342.331C615.916 343.364 614.625 343.752 612.751 343.752C610.814 343.752 609.651 343.364 608.359 342.331C607.326 341.362 606.938 340.522 607.003 339.295C607.132 337.939 607.649 337.164 608.94 336.195C610.362 335.161 611.653 334.709 613.591 334.709H619.146Z" fill="white"/>
<path d="M652.033 348.209C654.875 348.209 657.975 347.305 659.849 345.754C661.593 344.269 662.884 341.75 663.078 339.424C663.272 337.034 662.174 334.644 660.171 333.353C658.557 332.319 656.038 331.609 653.971 331.092C652.227 330.64 650.806 330.317 649.643 329.542C648.48 328.831 648.287 328.314 648.416 327.023C648.609 324.31 649.901 323.47 654.229 323.47C656.167 323.47 657.459 324.245 658.428 325.86L659.655 327.668L663.53 324.826L662.303 323.018C660.624 320.628 657.588 319.013 654.617 319.013C651.516 319.013 648.48 319.853 646.801 321.274C645.121 322.566 643.959 324.826 643.765 327.023C643.571 329.477 644.669 331.867 646.736 333.159C648.287 334.192 650.87 334.967 652.808 335.484C654.681 335.936 656.038 336.259 657.2 337.034C658.298 337.745 658.557 338.132 658.428 339.424C658.169 342.46 656.425 343.752 652.42 343.752C647.834 343.752 647.318 342.783 646.349 341.427L645.186 339.618L641.311 342.396L642.602 344.269C643.248 345.108 644.605 346.465 646.22 347.24C647.705 347.95 649.514 348.209 652.033 348.209Z" fill="white"/>
<path d="M676.981 348.273C679.565 348.273 682.665 347.24 684.668 345.754C686.799 344.14 688.285 341.556 688.479 339.295L689.512 327.991C689.706 325.666 688.672 323.082 686.864 321.532C685.184 319.982 682.471 319.013 679.952 319.013C676.658 319.013 672.912 320.628 670.909 323.018L669.424 324.891L672.783 327.604L674.268 325.795C675.625 324.245 677.239 323.47 679.565 323.47C683.182 323.47 685.055 325.279 684.861 327.991L684.668 329.542C684.668 330.058 684.668 330.058 684.538 330.188C684.28 330.381 684.151 330.252 684.151 330.252H678.531C675.883 330.252 672.847 331.221 670.845 332.771C668.778 334.321 667.228 336.905 666.969 339.295C666.775 341.556 667.938 344.14 669.747 345.754C671.491 347.24 674.333 348.273 676.981 348.273ZM683.763 334.709C683.957 334.709 684.409 334.709 684.215 334.774L683.828 339.295C683.763 340.522 683.311 341.362 681.955 342.331C680.534 343.364 679.242 343.752 677.369 343.752C675.431 343.752 674.268 343.364 672.976 342.331C671.943 341.362 671.555 340.522 671.62 339.295C671.749 337.939 672.266 337.164 673.558 336.195C674.979 335.161 676.271 334.709 678.208 334.709H683.763Z" fill="white"/>
<path d="M691.817 347.174C710.936 290.656 701.7 316.687 701.7 316.687H700.731L702.862 319.787L712.81 312.488L710.355 308.871L700.989 315.653L690.332 347.174H691.817ZM712.228 319.594L710.743 336.84C710.355 341.038 707.707 343.751 704.025 343.751C700.343 343.751 698.212 341.038 698.599 336.84L700.15 319.012H695.434L693.884 336.84C693.626 339.682 694.659 342.847 696.339 344.849C698.018 346.916 700.925 348.208 703.638 348.208C706.35 348.208 709.515 346.916 711.582 344.849C713.649 342.847 715.135 339.682 715.393 336.84L716.944 319.012H712.293L712.228 319.594Z" fill="white"/>
<path d="M723.738 344.071C726.064 346.655 729.874 348.205 733.492 348.205H740.791L744.214 309.321H739.563L738.724 318.945C738.724 318.945 738.917 319.074 738.659 319.268C738.53 319.462 738.594 319.462 737.948 319.462H736.011C732.394 319.462 728.324 321.076 725.482 323.725C722.705 326.244 720.767 330.184 720.444 333.866C720.121 337.547 721.348 341.423 723.738 344.071ZM738.336 323.208L736.527 343.748H733.879C728.13 343.748 724.578 339.614 725.095 333.866C725.547 328.052 729.874 323.918 735.623 323.918H737.496C738.078 323.918 738.53 323.854 738.271 323.918L738.336 323.208Z" fill="white"/>
<path d="M757.975 348.209C762.625 348.209 765.855 345.948 767.405 344.269L768.891 342.396L765.532 339.618L763.982 341.427C762.625 343.041 761.01 343.752 758.362 343.752C754.228 343.752 751.774 340.652 751.451 335.549H751.386L750.74 334.903C750.74 334.903 751.128 335.161 751.645 334.644C751.774 334.58 751.645 334.709 751.709 334.709H758.039C761.01 334.709 764.046 333.805 766.049 332.319C767.857 330.963 769.278 328.702 769.407 326.635C769.601 324.697 768.697 322.501 767.276 321.209C765.726 319.853 763.207 319.013 760.494 319.013C758.879 319.013 756.747 319.594 755.262 320.305C753.776 321.015 752.42 322.114 751.257 323.405C748.867 326.054 747.123 329.929 746.8 333.611C746.606 335.549 746.865 336.841 746.865 336.905C747.058 339.295 748.157 342.008 749.448 343.817C751.386 346.529 754.745 348.209 757.975 348.209ZM760.171 323.47C764.175 323.47 764.951 324.891 764.757 326.635C764.692 327.668 764.369 328.185 763.271 328.96C762.044 329.865 760.687 330.252 758.362 330.252H752.097C752.032 330.252 751.903 330.188 752.226 330.188C753.324 326.247 756.231 323.47 760.171 323.47Z" fill="white"/>
<path d="M805.198 340.134L804.1 341.426C802.743 343.041 801.193 343.751 798.48 343.751C794.411 343.751 791.892 340.651 791.569 335.548H791.504V335.483C791.569 335.419 791.246 335.16 791.827 334.644C791.956 334.514 791.633 334.644 791.762 334.644H798.222C801.128 334.644 804.229 333.804 806.167 332.318C807.975 330.962 809.396 328.636 809.525 326.634C809.719 324.696 808.815 322.5 807.394 321.208C805.844 319.852 803.26 319.012 800.612 319.012C798.997 319.012 796.865 319.594 795.38 320.304C793.894 321.015 792.473 322.113 791.44 323.34C788.985 326.053 787.241 329.928 786.918 333.61C786.853 334.321 786.853 335.096 786.918 335.871L786.983 336.84C787.241 339.294 788.275 342.007 789.566 343.816C791.569 346.529 794.863 348.208 798.093 348.208C802.743 348.208 805.973 345.947 807.458 344.203L808.944 342.395L805.585 339.617L805.198 340.134ZM800.224 323.469C804.293 323.469 805.004 324.89 804.81 326.634C804.746 327.603 804.423 328.184 803.454 328.895C802.162 329.864 800.805 330.187 798.609 330.187H792.344C793.506 326.247 796.413 323.469 800.224 323.469ZM794.023 316.687L796.09 319.787L806.037 312.488L803.647 308.871L793.571 316.17L794.023 316.687Z" fill="white"/>
<path d="M847.802 347.692L849.288 330.381C849.546 327.539 848.577 324.374 846.898 322.372C845.154 320.305 842.312 319.013 839.599 319.013C836.886 319.013 833.721 320.305 831.59 322.372C829.587 324.374 828.037 327.539 827.779 330.381L826.229 348.209H830.944L832.494 330.381C832.882 326.183 835.465 323.47 839.212 323.47C842.893 323.47 844.96 326.183 844.573 330.381L843.023 348.209H847.738L847.802 347.692Z" fill="white"/>
<path d="M864.59 348.209C866.269 348.209 867.949 347.821 869.563 347.046C871.049 346.336 872.987 345.108 874.15 343.817C876.669 341.168 878.413 337.293 878.736 333.611C879.059 329.929 877.96 325.989 875.958 323.341C874.989 322.049 873.245 320.886 871.889 320.111C870.403 319.401 868.853 319.013 867.174 319.013C865.559 319.013 863.815 319.401 862.265 320.111C860.779 320.886 858.906 322.049 857.679 323.341C855.159 325.989 853.415 329.929 853.092 333.611C852.769 337.293 853.868 341.168 855.87 343.817C856.903 345.108 858.583 346.336 859.939 347.046C861.36 347.821 862.975 348.209 864.59 348.209ZM866.786 323.47C871.63 323.47 874.537 327.669 874.02 333.611C873.504 339.618 869.822 343.752 864.977 343.752C860.198 343.752 857.291 339.618 857.808 333.611C858.324 327.669 862.006 323.47 866.786 323.47Z" fill="white"/>
<path d="M892.093 348.209C894.935 348.209 898.035 347.305 899.909 345.754C901.653 344.269 902.944 341.75 903.138 339.424C903.332 337.034 902.234 334.645 900.232 333.353C898.617 332.319 896.098 331.609 894.031 331.092C892.287 330.64 890.866 330.317 889.703 329.542C888.54 328.831 888.347 328.314 888.476 327.023C888.67 324.31 889.961 323.47 894.289 323.47C896.227 323.47 897.519 324.245 898.488 325.86L899.715 327.669L903.59 324.826L902.363 323.018C900.684 320.628 897.648 319.013 894.677 319.013C891.576 319.013 888.54 319.853 886.861 321.274C885.182 322.566 884.019 324.826 883.825 327.023C883.631 329.477 884.729 331.867 886.796 333.159C888.347 334.192 890.93 334.967 892.868 335.484C894.741 335.936 896.098 336.259 897.26 337.034C898.358 337.745 898.617 338.132 898.488 339.424C898.229 342.46 896.485 343.752 892.48 343.752C887.894 343.752 887.378 342.783 886.409 341.427L885.246 339.618L881.371 342.396L882.662 344.269C883.308 345.108 884.665 346.465 886.28 347.24C887.765 347.951 889.574 348.209 892.093 348.209Z" fill="white"/>
<path d="M916.107 348.207C918.949 348.207 922.05 347.302 923.923 345.752C925.667 344.267 926.959 341.747 927.152 339.422C927.346 337.032 926.248 334.642 924.246 333.35C922.631 332.317 920.112 331.606 918.045 331.09C916.301 330.638 914.88 330.315 913.717 329.54C912.555 328.829 912.361 328.312 912.49 327.02C912.684 324.308 913.976 323.468 918.303 323.468C920.241 323.468 921.533 324.243 922.502 325.858L923.729 327.666L927.605 324.824L926.377 323.016C924.698 320.626 921.662 319.011 918.691 319.011C915.59 319.011 912.555 319.851 910.875 321.272C909.196 322.564 908.033 324.824 907.839 327.02C907.645 329.475 908.744 331.865 910.811 333.157C912.361 334.19 914.944 334.965 916.882 335.482C918.755 335.934 920.112 336.257 921.274 337.032C922.373 337.743 922.631 338.13 922.502 339.422C922.243 342.458 920.499 343.75 916.495 343.75C911.909 343.75 911.392 342.781 910.423 341.425L909.26 339.616L905.385 342.393L906.677 344.267C907.323 345.106 908.679 346.463 910.294 347.238C911.779 347.948 913.588 348.207 916.107 348.207Z" fill="white"/>
<path d="M941.052 348.273C943.636 348.273 946.736 347.24 948.738 345.754C950.87 344.14 952.356 341.556 952.549 339.295L953.583 327.991C953.777 325.666 952.743 323.082 950.934 321.532C949.255 319.982 946.542 319.013 944.023 319.013C940.729 319.013 936.983 320.628 934.98 323.018L933.495 324.891L936.853 327.604L938.339 325.795C939.695 324.245 941.31 323.47 943.636 323.47C947.253 323.47 949.126 325.279 948.932 327.991L948.738 329.542C948.738 330.058 948.738 330.058 948.609 330.188C948.351 330.381 948.222 330.252 948.222 330.252H942.602C939.954 330.252 936.918 331.221 934.916 332.771C932.849 334.321 931.298 336.905 931.04 339.295C930.846 341.556 932.009 344.14 933.818 345.754C935.562 347.24 938.404 348.273 941.052 348.273ZM947.834 334.709C948.028 334.709 948.48 334.709 948.286 334.774L947.899 339.295C947.834 340.522 947.382 341.362 946.025 342.331C944.604 343.364 943.313 343.752 941.439 343.752C939.502 343.752 938.339 343.364 937.047 342.331C936.014 341.362 935.626 340.522 935.691 339.295C935.82 337.939 936.337 337.164 937.628 336.195C939.05 335.161 940.341 334.709 942.279 334.709H947.834Z" fill="white"/>
<path d="M1008.05 322.372C1006.43 320.305 1003.53 319.013 1000.81 319.013C998.101 319.013 994.936 320.305 992.869 322.372C992.287 322.889 991.9 323.405 992.029 323.276C992.158 323.535 991.706 322.889 991.318 322.372C989.574 320.305 986.732 319.013 984.02 319.013C981.307 319.013 978.142 320.305 976.01 322.372C974.008 324.374 972.458 327.539 972.199 330.381L970.649 348.209H975.364L976.914 330.381C977.302 326.183 979.886 323.47 983.632 323.47C987.314 323.47 989.381 326.183 988.993 330.381L987.443 348.209H992.158L993.708 330.381C994.096 326.183 996.744 323.47 1000.43 323.47C1004.11 323.47 1006.24 326.183 1005.85 330.381L1004.3 348.209H1008.95L1010.5 330.381C1010.76 327.539 1009.79 324.374 1008.05 322.372Z" fill="white"/>
<path d="M1017.6 348.207H1021.54L1024.13 318.947H1019.41L1016.83 348.207H1017.6ZM1022.51 310.615C1021.54 310.615 1019.99 311.906 1019.93 312.811L1019.86 313.457C1019.8 314.361 1021.09 315.653 1022.06 315.653C1022.9 315.653 1024.51 314.361 1024.58 313.457L1024.64 312.811C1024.71 311.906 1023.35 310.615 1022.51 310.615Z" fill="white"/>
<path d="M1038.05 348.209C1040.89 348.209 1043.99 347.305 1045.86 345.754C1047.61 344.269 1048.9 341.75 1049.09 339.424C1049.29 337.034 1048.19 334.645 1046.19 333.353C1044.57 332.319 1042.05 331.609 1039.98 331.092C1038.24 330.64 1036.82 330.317 1035.66 329.542C1034.49 328.831 1034.3 328.314 1034.43 327.023C1034.62 324.31 1035.92 323.47 1040.24 323.47C1042.18 323.47 1043.47 324.245 1044.44 325.86L1045.67 327.669L1049.54 324.826L1048.32 323.018C1046.64 320.628 1043.6 319.013 1040.63 319.013C1037.53 319.013 1034.49 319.853 1032.82 321.274C1031.14 322.566 1029.97 324.826 1029.78 327.023C1029.59 329.477 1030.68 331.867 1032.75 333.159C1034.3 334.192 1036.88 334.967 1038.82 335.484C1040.7 335.936 1042.05 336.259 1043.21 337.034C1044.31 337.745 1044.57 338.132 1044.44 339.424C1044.18 342.46 1042.44 343.752 1038.43 343.752C1033.85 343.752 1033.33 342.783 1032.36 341.427L1031.2 339.618L1027.32 342.396L1028.62 344.269C1029.26 345.108 1030.62 346.465 1032.23 347.24C1033.72 347.951 1035.53 348.209 1038.05 348.209Z" fill="white"/>
<path d="M1062.07 348.208C1064.91 348.208 1068.01 347.304 1069.88 345.753C1071.63 344.268 1072.92 341.749 1073.11 339.423C1073.31 337.033 1072.21 334.643 1070.21 333.352C1068.59 332.318 1066.07 331.608 1064.01 331.091C1062.26 330.639 1060.84 330.316 1059.68 329.541C1058.51 328.83 1058.32 328.313 1058.45 327.022C1058.64 324.309 1059.94 323.469 1064.26 323.469C1066.2 323.469 1067.49 324.244 1068.46 325.859L1069.69 327.667L1073.56 324.825L1072.34 323.017C1070.66 320.627 1067.62 319.012 1064.65 319.012C1061.55 319.012 1058.51 319.852 1056.84 321.273C1055.16 322.565 1053.99 324.825 1053.8 327.022C1053.61 329.476 1054.7 331.866 1056.77 333.158C1058.32 334.191 1060.9 334.966 1062.84 335.483C1064.72 335.935 1066.07 336.258 1067.23 337.033C1068.33 337.744 1068.59 338.131 1068.46 339.423C1068.2 342.459 1066.46 343.751 1062.46 343.751C1057.87 343.751 1057.35 342.782 1056.38 341.426L1055.22 339.617L1051.35 342.394L1052.64 344.268C1053.28 345.107 1054.64 346.464 1056.25 347.239C1057.74 347.949 1059.55 348.208 1062.07 348.208Z" fill="white"/>
<path d="M1099.47 328.189C1099.54 327.996 1099.47 328.06 1099.54 327.996C1099.73 325.67 1098.64 323.087 1096.89 321.536C1095.21 319.986 1092.43 319.017 1089.92 319.017C1086.62 319.017 1082.94 320.632 1080.94 323.022L1079.45 324.895L1082.81 327.608L1084.3 325.8C1085.65 324.249 1087.2 323.474 1089.53 323.474C1093.14 323.474 1095.08 325.283 1094.89 327.996L1094.7 329.546C1094.63 330.063 1094.7 330.063 1094.57 330.192C1094.24 330.386 1094.31 330.256 1094.18 330.256H1088.49C1085.91 330.256 1082.87 331.225 1080.81 332.775C1078.74 334.326 1077.19 336.909 1076.93 339.299C1076.74 341.56 1077.9 344.144 1079.71 345.759C1081.52 347.244 1084.36 348.213 1086.94 348.213C1089.53 348.213 1092.63 347.244 1094.7 345.759C1096.76 344.144 1098.31 341.56 1098.51 339.299L1099.35 329.546C1099.35 329.546 1099.41 329.417 1099.41 329.352L1099.47 328.189ZM1093.86 339.299C1093.79 340.527 1093.27 341.366 1091.92 342.335C1090.56 343.369 1089.2 343.756 1087.33 343.756C1085.39 343.756 1084.23 343.369 1083 342.335C1081.91 341.366 1081.58 340.527 1081.65 339.299C1081.78 337.943 1082.23 337.168 1083.59 336.199C1084.94 335.165 1086.23 334.713 1088.17 334.713H1093.79C1093.92 334.713 1094.37 334.713 1094.24 334.778L1093.86 339.299ZM1087.72 314.496C1088.11 313.785 1088.04 313.979 1087.91 314.108C1087.91 314.108 1088.04 314.431 1088.36 314.754C1089.14 315.4 1090.75 316.563 1092.18 316.563C1092.37 316.563 1092.69 316.498 1092.89 316.498C1094.24 316.175 1096.18 314.431 1097.21 312.623L1098.18 310.879L1094.18 308.941L1092.95 311.202C1092.31 312.364 1092.11 312.235 1092.43 312.106C1092.37 312.106 1092.18 311.783 1091.72 311.395C1090.75 310.556 1089.08 309.264 1087.33 309.651C1086.1 309.974 1084.36 311.589 1083.39 313.139L1082.49 314.819L1086.49 316.757L1087.72 314.496Z" fill="white"/>
<path d="M1114.3 348.209C1115.98 348.209 1117.66 347.821 1119.28 347.046C1120.76 346.336 1122.7 345.108 1123.86 343.817C1126.38 341.168 1128.13 337.293 1128.45 333.611C1128.77 329.929 1127.67 325.989 1125.67 323.341C1124.7 322.049 1122.96 320.886 1121.6 320.111C1120.12 319.401 1118.57 319.013 1116.89 319.013C1115.27 319.013 1113.53 319.401 1111.98 320.111C1110.49 320.886 1108.62 322.049 1107.39 323.341C1104.87 325.989 1103.13 329.929 1102.81 333.611C1102.48 337.293 1103.58 341.168 1105.58 343.817C1106.62 345.108 1108.3 346.336 1109.65 347.046C1111.07 347.821 1112.69 348.209 1114.3 348.209ZM1116.5 323.47C1121.34 323.47 1124.25 327.669 1123.73 333.611C1123.22 339.618 1119.54 343.752 1114.69 343.752C1109.91 343.752 1107 339.618 1107.52 333.611C1108.04 327.669 1111.72 323.47 1116.5 323.47Z" fill="white"/>
</svg>
